HIERARCHY
ROOT Hips
{
	OFFSET -0.179506 -22.333345 2.821913
	CHANNELS 6 Xposition Yposition Zposition Zrotation Yrotation Xrotation 
	JOINT LeftUpLeg
	{
		OFFSET 6.951974 -9.140623 -0.681533
		CHANNELS 3 Zrotation Yrotation Xrotation
		JOINT LeftLeg
		{
			OFFSET 3.427654 -37.519855 -0.449580
			CHANNELS 3 Zrotation Yrotation Xrotation
			JOINT LeftFoot
			{
				OFFSET -1.359570 -39.796059 -4.369333
				CHANNELS 3 Zrotation Yrotation Xrotation
				JOINT LeftToe
				{
					OFFSET 2.635814 -5.579078 11.928840
					CHANNELS 3 Zrotation Yrotation Xrotation
					End Site
					{
						OFFSET 0.000000 0.000000 0.000000
					}
				}
			}
		}
	}
	JOINT RightUpLeg
	{
		OFFSET -6.767048 -9.052170 -0.431982
		CHANNELS 3 Zrotation Yrotation Xrotation
		JOINT RightLeg
		{
			OFFSET -3.829005 -38.256897 -0.885003
			CHANNELS 3 Zrotation Yrotation Xrotation
			JOINT RightFoot
			{
				OFFSET 1.577377 -39.841461 -4.231180
				CHANNELS 3 Zrotation Yrotation Xrotation
				JOINT RightToe
				{
					OFFSET -2.537174 -4.814398 12.334795
					CHANNELS 3 Zrotation Yrotation Xrotation
					End Site
					{
						OFFSET 0.000000 0.000000 0.000000
					}
				}
			}
		}
	}
	JOINT Spine
	{
		OFFSET -0.253288 10.896323 -2.669631
		CHANNELS 3 Zrotation Yrotation Xrotation
		JOINT Spine1
		{
			OFFSET 0.548704 13.518043 0.109247
			CHANNELS 3 Zrotation Yrotation Xrotation
			JOINT Spine2
			{
				OFFSET 0.145701 5.292222 2.542457
				CHANNELS 3 Zrotation Yrotation Xrotation
				JOINT Neck
				{
					OFFSET -0.277840 21.387037 -4.285703
					CHANNELS 3 Zrotation Yrotation Xrotation
					JOINT Head
					{
						OFFSET 0.515184 6.496960 5.134897
						CHANNELS 3 Zrotation Yrotation Xrotation
						End Site
						{
							OFFSET 0.000000 0.000000 0.000000
						}
					}
				}
				JOINT LeftShoulder
				{
					OFFSET 7.884473 12.174932 -3.408961
					CHANNELS 3 Zrotation Yrotation Xrotation
					JOINT LeftArm
					{
						OFFSET 9.097692 3.046888 -0.886815
						CHANNELS 3 Zrotation Yrotation Xrotation
						JOINT LeftForeArm
						{
							OFFSET 25.961220 -1.277207 -2.745643
							CHANNELS 3 Zrotation Yrotation Xrotation
							JOINT LeftHand
							{
								OFFSET 24.923361 0.898606 -0.117091
								CHANNELS 3 Zrotation Yrotation Xrotation
								End Site
								{
									OFFSET 0.000000 0.000000 0.000000
								}
							}
						}
					}
				}
				JOINT RightShoulder
				{
					OFFSET -8.175920 11.883285 -3.861528
					CHANNELS 3 Zrotation Yrotation Xrotation
					JOINT RightArm
					{
						OFFSET -9.601238 3.255117 -0.914307
						CHANNELS 3 Zrotation Yrotation Xrotation
						JOINT RightForeArm
						{
							OFFSET -25.374195 -1.332924 -2.140099
							CHANNELS 3 Zrotation Yrotation Xrotation
							JOINT RightHand
							{
								OFFSET -25.529810 0.777228 -0.555919
								CHANNELS 3 Zrotation Yrotation Xrotation
								End Site
								{
									OFFSET 0.000000 0.000000 0.000000
								}
							}
						}
					}
				}
			}
		}
	}
}
MOTION
Frames: 13
Frame Time: 0.033333
30.870491 65.034233 97.681419 -78.849826 52.915123 104.039764 47.109822 27.015204 -27.960184 2.223811 8.846965 25.280564 -3.315871 12.104046 -15.590195 nan nan nan -33.010425 -6.332062 -53.189213 1.741130 7.021399 107.838842 4.022185 -12.420155 -38.704727 nan nan nan -5.558254 -2.978120 24.630028 13.990446 -3.836407 -1.508197 7.245133 -5.903126 -2.035169 10.833533 -10.833650 22.932778 22.286457 -13.296428 6.335896 -9.953756 -17.762645 7.799985 -36.916874 -37.893370 5.215194 -25.304721 -56.780679 41.828381 37.918360 -20.076066 -33.420445 13.861391 -3.870548 11.001770 40.692103 -18.979617 -2.905130 -24.185753 63.793893 -34.764952 -33.088774 -2.437525 -67.833694 
30.814922 64.991478 97.618980 -79.345550 51.520464 103.599547 46.100057 26.329386 -27.936435 1.817125 9.318244 25.983526 -3.168700 12.435079 -16.082460 nan nan nan -32.383304 -6.188989 -54.468410 1.178972 5.303499 110.760145 3.604030 -11.604678 -38.396406 nan nan nan -5.698327 -3.312409 24.405733 13.733511 -3.989651 -1.386915 6.908258 -6.053759 -2.039689 10.686537 -10.730067 23.238405 22.143165 -13.316691 6.219767 -10.169876 -18.036838 7.455338 -36.836062 -38.105007 5.577733 -24.702287 -57.255081 40.848849 37.487094 -20.373123 -32.463256 13.655258 -4.194803 11.082716 40.766674 -19.597983 -2.598182 -23.994934 64.468530 -34.414461 -34.363144 -3.528545 -68.188549 
30.762129 64.936996 97.580345 -80.037520 50.136832 102.944993 45.165418 25.614934 -27.636193 1.355389 9.814140 26.558776 -2.864079 12.836955 -16.522788 nan nan nan -31.503520 -5.921795 -55.548278 1.038515 3.272424 113.187078 3.867511 -9.778127 -38.525095 nan nan nan -5.908988 -3.539538 24.180999 13.515345 -4.061155 -1.133378 6.531317 -6.130073 -2.075869 10.949075 -10.479748 23.276019 21.774585 -13.546091 6.061881 -10.375692 -18.174698 7.106933 -36.952796 -38.423664 6.136906 -23.939840 -57.887116 39.891040 36.673113 -20.787212 -31.461169 13.462362 -4.557124 11.116166 40.842681 -20.290964 -2.289404 -23.968684 65.288298 -33.893806 -33.468372 -3.315836 -69.626338 
30.709671 64.878593 97.549744 -80.759445 48.744405 102.282499 44.197826 24.860355 -27.294159 0.982602 10.398618 27.085744 -2.462037 13.227816 -16.924687 nan nan nan -30.319760 -5.586259 -56.454540 1.151525 1.083875 115.214529 4.130536 -8.108745 -38.250158 nan nan nan -6.077613 -3.831399 23.880768 13.230753 -4.109709 -0.948998 6.066454 -6.218248 -1.992746 11.144586 -10.300839 23.223268 21.429035 -13.697930 6.055288 -10.446860 -18.125186 6.672017 -37.287391 -38.751640 6.896940 -23.264258 -58.637509 39.045815 35.849064 -21.399654 -30.666794 13.083873 -4.957713 11.036763 41.027880 -20.849407 -1.940282 -23.532975 66.080745 -33.029487 -32.338676 -2.657954 -71.163325 
30.599922 64.830887 97.533424 -81.685843 47.389343 101.299367 43.336737 24.184057 -26.622921 0.683566 11.024925 27.597419 -2.237083 13.483006 -17.403010 nan nan nan -28.852351 -4.959200 -57.058870 1.159214 -1.121785 116.644922 4.299478 -6.422548 -38.088152 nan nan nan -6.291275 -4.049422 23.708859 12.912649 -4.091749 -0.792852 5.611431 -6.240660 -1.800571 11.343901 -10.104997 23.041721 21.073683 -14.051755 5.991497 -10.179693 -17.935862 6.017076 -37.966069 -39.169242 7.876751 -22.726659 -59.298044 38.468359 35.233999 -22.113407 -30.151742 12.466221 -5.551058 10.728901 41.318274 -21.260496 -1.652401 -22.466610 66.959154 -31.426872 -31.704728 -2.098612 -72.266906 
30.428711 64.748055 97.529114 -82.852259 46.057552 99.897615 42.585296 23.592899 -25.460041 0.289080 11.561108 27.962389 -2.031549 13.806581 -17.895184 nan nan nan -27.223883 -4.028190 -57.138688 0.932564 -3.313865 117.333512 4.520483 -4.885605 -38.543360 nan nan nan -6.531621 -4.122947 23.774380 12.532809 -3.993194 -0.631711 5.202919 -6.195648 -1.579198 11.573891 -9.794956 22.741979 20.697154 -14.497064 5.938682 -9.812926 -17.800490 5.250312 -38.752377 -39.534106 8.913530 -22.279515 -59.918843 37.967664 34.785891 -22.547927 -29.693359 11.826761 -6.110137 10.312009 41.710916 -21.736507 -1.459668 -21.704033 67.909391 -30.019725 -30.928561 -1.454371 -73.316954 
30.267427 64.617874 97.523674 -83.940101 44.739640 98.575418 41.742229 22.972494 -24.290137 -0.110070 11.980938 28.184148 -1.630465 14.330010 -18.327602 nan nan nan -25.182546 -3.155533 -56.920080 0.918951 -5.460490 117.392839 4.631973 -4.009631 -38.918658 nan nan nan -6.657619 -4.190212 23.833698 12.063480 -3.878767 -0.467319 4.857016 -6.134659 -1.367946 11.571157 -9.653565 22.400878 20.439949 -14.843849 6.136890 -9.672360 -17.665195 4.548817 -39.666264 -39.734452 9.834008 -22.052009 -60.677689 37.724313 34.441179 -22.616529 -29.070356 11.234989 -6.500604 9.998697 42.137359 -22.312698 -1.347739 -21.346952 68.908705 -29.077221 -30.414853 -1.063837 -74.171713 
30.104687 64.490799 97.544342 -84.995207 43.466059 97.284877 40.891625 22.394718 -23.090093 -0.475638 12.315573 28.318859 -1.194369 14.842393 -18.672517 nan nan nan -22.716525 -2.273959 -56.550982 0.965060 -7.447674 116.929981 4.510860 -3.882939 -38.867454 nan nan nan -6.826532 -4.302977 23.932279 11.590952 -3.740331 -0.345268 4.598095 -6.008072 -1.050542 11.393137 -9.686824 22.047742 20.262288 -15.033745 6.349580 -9.628123 -17.287849 3.823119 -40.794376 -39.849689 10.795218 -22.117265 -61.620959 37.949379 34.013370 -22.628513 -28.672780 10.546607 -6.892886 9.638506 42.591009 -22.849748 -1.127660 -21.086044 69.939342 -28.154039 -29.872991 -0.705694 -74.702425 
29.903046 64.368004 97.573044 -86.089647 42.237925 95.977685 40.055497 21.990692 -21.835762 -0.668678 12.762864 28.477094 -0.974239 15.032877 -19.063275 nan nan nan -20.182263 -1.349187 -55.918927 0.371797 -9.180062 115.948204 4.197272 -3.931797 -38.704140 nan nan nan -6.980491 -4.425317 23.944473 11.121004 -3.611259 -0.195782 4.352704 -5.877157 -0.717283 11.161077 -9.711140 21.763280 20.001031 -15.032850 6.551569 -9.467743 -16.798855 3.163623 -42.177422 -39.864815 11.909185 -21.731589 -62.637883 37.958072 33.571379 -22.883286 -28.760821 9.743685 -7.313697 9.316388 43.011449 -23.258159 -0.917261 -20.580555 70.916109 -26.734212 -28.669456 0.268968 -75.597716 
29.695259 64.219536 97.605919 -87.167281 41.057906 94.773018 39.141734 21.690006 -20.614689 -0.639144 13.290583 28.584278 -1.023524 15.027266 -19.543334 nan nan nan -17.641684 -0.473652 -54.840737 -0.651397 -10.918447 114.211131 4.420753 -3.803813 -39.206675 nan nan nan -6.944655 -4.540476 23.897956 10.595206 -3.502791 -0.016914 4.134822 -5.793651 -0.451799 10.771130 -9.795203 21.541522 19.622081 -14.886159 6.698903 -9.240909 -16.181447 2.446627 -43.852011 -39.827178 13.111561 -21.183613 -63.577191 37.922550 33.412852 -22.988671 -28.883078 8.790018 -7.742418 8.964004 43.357874 -23.540792 -0.777083 -19.254644 71.924250 -24.325394 -27.568657 1.410174 -76.561117 
29.478100 64.066887 97.676643 -88.144934 39.851520 93.623951 38.035457 21.541097 -19.426413 -0.434216 13.628736 28.632141 -1.098085 14.962042 -19.848912 nan nan nan -14.895544 0.205760 -53.516255 -1.349745 -12.237722 111.924609 4.441742 -3.249181 -39.521950 nan nan nan -6.927476 -4.611641 23.918200 10.011203 -3.521401 0.105899 3.960308 -5.690015 -0.228087 10.304692 -10.008976 21.549198 19.736630 -15.029390 6.661582 -8.994619 -15.628448 1.751301 -45.465040 -39.578908 14.110398 -21.089097 -64.454399 38.183431 33.325050 -23.041497 -28.874414 7.900734 -8.010121 8.741545 43.663991 -23.748397 -0.893502 -16.749932 73.066040 -20.695665 -26.849005 2.249276 -76.884696 
29.248079 63.901249 97.768005 -88.937646 38.574632 92.670465 36.762600 21.355316 -18.346035 -0.216380 13.881608 28.583387 -1.134822 14.941711 -20.005671 nan nan nan -12.215872 0.673368 -51.917992 -1.941353 -13.398051 109.085470 4.378586 -2.549577 -39.261056 nan nan nan -7.026760 -4.583200 23.899831 9.490000 -3.604746 0.173978 3.914739 -5.631380 -0.020801 9.912611 -10.222961 21.531965 19.520973 -14.850009 6.672506 -8.872772 -15.106247 1.130412 -47.110612 -39.230284 15.122045 -21.033073 -65.401269 38.357655 32.966669 -23.252045 -28.945689 7.017707 -8.296391 8.436120 43.823866 -23.963242 -0.846615 -13.733540 74.193331 -16.742351 -26.047335 2.935729 -76.747722 
28.998747 63.724522 97.883995 -89.599585 37.264474 91.758400 35.501411 21.119697 -17.165066 -0.155219 14.101055 28.368827 -1.201461 14.916793 -20.142445 nan nan nan -9.670366 0.856224 -49.893308 -2.093257 -14.644305 105.570678 4.641949 -1.630226 -39.056041 nan nan nan -7.212147 -4.450486 23.920903 9.013462 -3.759466 0.300639 3.913938 -5.595247 0.095015 9.664881 -10.504273 21.510020 19.325084 -14.741683 6.789635 -8.782642 -14.631383 0.702438 -48.746007 -38.819673 16.122393 -20.742460 -66.533508 38.265648 32.652409 -23.460455 -29.184789 6.280476 -8.487539 8.224162 43.889927 -24.191632 -0.835439 -10.402857 75.204465 -12.651748 -25.208165 3.892278 -76.627254 
